<svg xmlns="http://www.w3.org/2000/svg" width="1440" height="420" viewBox="0 0 1440 420" role="img" aria-labelledby="title desc">
  <title id="title">Piyush Patni — software, data, and applied machine learning</title>
  <desc id="desc">An animated dark systems dashboard showing Piyush Patni's work across software, data, and applied machine learning.</desc>
  <defs>
    <linearGradient id="bg" x1="0" y1="0" x2="1" y2="1"><stop stop-color="#11171e"/><stop offset=".58" stop-color="#0b1016"/><stop offset="1" stop-color="#080c11"/></linearGradient>
    <linearGradient id="trace" x1="0" x2="1"><stop stop-color="#b7e866" stop-opacity="0"/><stop offset=".45" stop-color="#d5ff85"/><stop offset="1" stop-color="#b7e866" stop-opacity="0"/></linearGradient>
    <radialGradient id="glow"><stop stop-color="#b7e866" stop-opacity=".16"/><stop offset="1" stop-color="#b7e866" stop-opacity="0"/></radialGradient>
    <filter id="softGlow" x="-100%" y="-100%" width="300%" height="300%"><feGaussianBlur stdDeviation="5"/></filter>
    <clipPath id="chartClip"><rect x="975" y="84" width="375" height="179" rx="8"/></clipPath>
    <style>
      .sans{font-family:Inter,ui-sans-serif,-apple-system,BlinkMacSystemFont,"Segoe UI",sans-serif}.mono{font-family:"SFMono-Regular",Consolas,"Liberation Mono",monospace}.muted{fill:#7f8d99}.grid{stroke:#26313a;stroke-width:1}.node{fill:#b7e866}.pulse{animation:pulse 2.8s ease-in-out infinite;transform-box:fill-box;transform-origin:center}.pulse-b{animation-delay:.9s}.pulse-c{animation-delay:1.8s}.flow{stroke-dasharray:8 14;animation:flow 3s linear infinite}.draw{stroke-dasharray:650;stroke-dashoffset:650;animation:draw 3.8s ease-in-out infinite}.cursor{animation:blink 1s steps(1) infinite}.scan{animation:scan 5s linear infinite}
      @keyframes pulse{0%,100%{opacity:.35;transform:scale(.72)}45%{opacity:1;transform:scale(1)}}@keyframes flow{to{stroke-dashoffset:-44}}@keyframes draw{0%{stroke-dashoffset:650}45%,80%{stroke-dashoffset:0}100%{stroke-dashoffset:-650}}@keyframes blink{0%,48%{opacity:1}49%,100%{opacity:0}}@keyframes scan{from{transform:translateX(-430px)}to{transform:translateX(430px)}}@media(prefers-reduced-motion:reduce){.pulse,.flow,.draw,.cursor,.scan{animation:none}.draw{stroke-dashoffset:0}}
    </style>
  </defs>
  <rect width="1440" height="420" rx="18" fill="url(#bg)"/><rect x="1" y="1" width="1438" height="418" rx="17" fill="none" stroke="#2c3741"/><circle cx="1094" cy="187" r="300" fill="url(#glow)"/>
  <g opacity=".55"><path class="grid" d="M46 52H1394M46 105H1394M46 158H1394M46 211H1394M46 264H1394M46 317H1394M46 370H1394"/><path class="grid" d="M98 30V390M204 30V390M310 30V390M416 30V390M522 30V390M628 30V390M734 30V390M840 30V390M946 30V390M1052 30V390M1158 30V390M1264 30V390M1370 30V390"/></g>
  <g class="sans"><circle cx="64" cy="55" r="4" class="node pulse"/><text x="82" y="61" font-size="14" font-weight="650" letter-spacing="3.5" fill="#aab6bf">PIYUSH PATNI / ENGINEER</text><text x="58" y="173" font-size="74" font-weight="760" letter-spacing="-3.6" fill="#f1f5f7">I build useful</text><text x="58" y="252" font-size="74" font-weight="760" letter-spacing="-3.6" fill="#f1f5f7">things from</text><text x="58" y="331" font-size="74" font-weight="760" letter-spacing="-3.6" fill="#b7e866">messy problems.</text><text x="62" y="382" font-size="14" font-weight="650" letter-spacing="2.1" fill="#96a4ae">SOFTWARE</text><circle cx="171" cy="377" r="3" fill="#48545e"/><text x="190" y="382" font-size="14" font-weight="650" letter-spacing="2.1" fill="#96a4ae">DATA</text><circle cx="255" cy="377" r="3" fill="#48545e"/><text x="274" y="382" font-size="14" font-weight="650" letter-spacing="2.1" fill="#96a4ae">APPLIED ML</text></g>
  <g><path d="M866 55H1326Q1354 55 1354 83V279" fill="none" stroke="#384550"/><path d="M866 55H1326Q1354 55 1354 83V279" fill="none" stroke="#b7e866" stroke-width="1.5" class="flow" opacity=".7"/><circle cx="866" cy="55" r="5" class="node pulse pulse-b"/><circle cx="1354" cy="279" r="5" class="node pulse pulse-c"/></g>
  <g><rect x="940" y="71" width="440" height="222" rx="13" fill="#0e151c" stroke="#34414b"/><path d="M940 111H1380" stroke="#34414b"/><circle cx="966" cy="91" r="4" fill="#ff6b6b"/><circle cx="982" cy="91" r="4" fill="#f0c35a"/><circle cx="998" cy="91" r="4" fill="#b7e866"/><text x="1022" y="96" class="mono muted" font-size="12">signal_pipeline.py</text><g clip-path="url(#chartClip)"><path d="M966 251L1002 244L1037 248L1071 226L1108 232L1145 196L1181 208L1218 159L1255 171L1291 121L1354 137" fill="none" stroke="#43515c" stroke-width="7" opacity=".28" filter="url(#softGlow)"/><path d="M966 251L1002 244L1037 248L1071 226L1108 232L1145 196L1181 208L1218 159L1255 171L1291 121L1354 137" fill="none" stroke="#b7e866" stroke-width="2.5" class="draw"/><rect x="940" y="114" width="70" height="154" fill="url(#trace)" opacity=".11" class="scan"/></g><g class="mono" font-size="12"><text x="965" y="137" fill="#63727e">01</text><text x="995" y="137" fill="#b7e866">problem</text><text x="1052" y="137" fill="#7f8d99"> → data → decision → product</text><text x="965" y="161" fill="#63727e">02</text><text x="995" y="161" fill="#7f8d99">status:</text><text x="1052" y="161" fill="#dce4e8"> always building</text></g></g>
  <g class="mono" font-size="13"><rect x="940" y="315" width="440" height="62" rx="10" fill="#0e151c" stroke="#34414b"/><text x="962" y="352" fill="#b7e866">~</text><text x="979" y="352" fill="#83929e"> ship ideas that survive contact with reality</text><rect x="1342" y="338" width="8" height="17" rx="1" fill="#b7e866" class="cursor"/></g>
</svg>
